<svg xmlns="http://www.w3.org/2000/svg" width="54.61mm" height="20.54mm" viewBox="0 0 154.79 58.23">
  <defs>
    <style>
      .cls-1 {
        isolation: isolate;
      }

      .cls-2, .cls-3 {
        fill: #fff;
      }

      .cls-3 {
        fill-rule: evenodd;
      }
    </style>
  </defs>
  <title>gammscience</title>
  <g id="Layer_2" data-name="Layer 2">
    <g id="Layer_1-2" data-name="Layer 1">
      <g id="layer1">
        <g id="g2858">
          <g id="text741-7-9-5-6-4-9-8-2-87-7-2-7-30" class="cls-1">
            <g class="cls-1">
              <path class="cls-2" d="M3,52.71v.49a2.25,2.25,0,0,0-1.16-.44,1.08,1.08,0,0,0-1.1,1.09,1.07,1.07,0,0,0,.19.6,1.68,1.68,0,0,0,.78.51,7.77,7.77,0,0,1,.86.42,1.3,1.3,0,0,1,.46.47,1.52,1.52,0,0,1,.19.81,1.58,1.58,0,0,1-.44,1.12,1.44,1.44,0,0,1-1.07.45,2.23,2.23,0,0,1-1.33-.5v-.52a2.21,2.21,0,0,0,1.31.61,1,1,0,0,0,.78-.33,1.12,1.12,0,0,0,.31-.81A1.18,1.18,0,0,0,2.63,56a1.84,1.84,0,0,0-.8-.55A6.53,6.53,0,0,1,1,55.06a1.32,1.32,0,0,1-.44-.44,1.41,1.41,0,0,1-.18-.75,1.5,1.5,0,0,1,.44-1.08,1.44,1.44,0,0,1,1.05-.44A2.26,2.26,0,0,1,3,52.71Z" transform="translate(-0.35)"/>
            </g>
            <g class="cls-1">
              <path class="cls-2" d="M9.54,54.49v.45a2,2,0,0,0-.88-.24,1.16,1.16,0,0,0-.94.44,1.73,1.73,0,0,0-.35,1.14,1.69,1.69,0,0,0,.35,1.14,1.21,1.21,0,0,0,1,.42,2.2,2.2,0,0,0,.92-.22V58a2.71,2.71,0,0,1-.95.19,1.54,1.54,0,0,1-1.22-.52A2,2,0,0,1,7,56.33a2.17,2.17,0,0,1,.47-1.46,1.48,1.48,0,0,1,1.19-.56A2.75,2.75,0,0,1,9.54,54.49Z" transform="translate(-0.35)"/>
            </g>
            <g class="cls-1">
              <path class="cls-2" d="M13.82,52.42v.69h-.37v-.69Zm0,2v3.78h-.37V54.38Z" transform="translate(-0.35)"/>
            </g>
            <g class="cls-1">
              <path class="cls-2" d="M20.83,56.13h-2.7a1.34,1.34,0,0,0,0,.2,1.52,1.52,0,0,0,.41,1.07,1.28,1.28,0,0,0,1,.44,1.93,1.93,0,0,0,1.27-.56v.45a2,2,0,0,1-1.32.5,1.55,1.55,0,0,1-1.22-.56,2.17,2.17,0,0,1-.49-1.45,2.07,2.07,0,0,1,.45-1.37,1.43,1.43,0,0,1,2.2-.05A1.94,1.94,0,0,1,20.83,56.13Zm-2.65-.32h2.21q-.18-1.11-1.08-1.11a1,1,0,0,0-.72.29A1.45,1.45,0,0,0,18.18,55.81Z" transform="translate(-0.35)"/>
            </g>
            <g class="cls-1">
              <path class="cls-2" d="M25.19,54.38V55h0a1.26,1.26,0,0,1,1.12-.73,1.13,1.13,0,0,1,.93.41,1.71,1.71,0,0,1,.34,1.14v2.3h-.36V56c0-.87-.31-1.31-.93-1.31a1.29,1.29,0,0,0-1.12.81v2.65h-.36V54.38Z" transform="translate(-0.35)"/>
            </g>
            <g class="cls-1">
              <path class="cls-2" d="M32.32,53.13v1.25h1v.33h-1V57a1.87,1.87,0,0,0,.08.71c.05.11.19.17.43.17a1.35,1.35,0,0,0,.62-.19V58a1.48,1.48,0,0,1-.71.19.79.79,0,0,1-.56-.21.78.78,0,0,1-.23-.59V54.71H31v-.33H32v-.9l.25-.35Z" transform="translate(-0.35)"/>
            </g>
            <g class="cls-1">
              <path class="cls-2" d="M37.81,52.42v.69h-.37v-.69Zm0,2v3.78h-.37V54.38Z" transform="translate(-0.35)"/>
            </g>
            <g class="cls-1">
              <path class="cls-2" d="M44.31,52.51v.38a1.68,1.68,0,0,0-.61-.15c-.56,0-.83.39-.83,1.17v.47h.66v.33h-.66v3.45H42.5V54.71h-.63v-.33h.63v-.62a1.48,1.48,0,0,1,.35-1,1.1,1.1,0,0,1,.84-.38A1.46,1.46,0,0,1,44.31,52.51Z" transform="translate(-0.35)"/>
            </g>
            <g class="cls-1">
              <path class="cls-2" d="M48,52.42v.69h-.37v-.69Zm0,2v3.78h-.37V54.38Z" transform="translate(-0.35)"/>
            </g>
            <g class="cls-1">
              <path class="cls-2" d="M54.66,54.49v.45a2.05,2.05,0,0,0-.89-.24,1.16,1.16,0,0,0-.93.44,1.73,1.73,0,0,0-.36,1.14,1.69,1.69,0,0,0,.36,1.14,1.2,1.2,0,0,0,1,.42,2.17,2.17,0,0,0,.92-.22V58a2.67,2.67,0,0,1-.95.19,1.53,1.53,0,0,1-1.21-.52,2,2,0,0,1-.46-1.38,2.22,2.22,0,0,1,.46-1.46,1.49,1.49,0,0,1,1.19-.56A2.76,2.76,0,0,1,54.66,54.49Z" transform="translate(-0.35)"/>
            </g>
            <g class="cls-1">
              <path class="cls-2" d="M73.22,52.83v.48a3.74,3.74,0,0,0-1.85-.55,2.06,2.06,0,0,0-1.62.73,2.85,2.85,0,0,0,0,3.62,2.15,2.15,0,0,0,1.67.71,3.63,3.63,0,0,0,1.85-.59v.46a3.64,3.64,0,0,1-1.84.54,2.61,2.61,0,0,1-2-.84,3,3,0,0,1-.79-2.09,2.91,2.91,0,0,1,.81-2.1,2.55,2.55,0,0,1,1.92-.85A4.06,4.06,0,0,1,73.22,52.83Z" transform="translate(-0.35)"/>
            </g>
            <g class="cls-1">
              <path class="cls-2" d="M78.59,54.31a1.59,1.59,0,0,1,1.24.56,2.21,2.21,0,0,1,0,2.8,1.65,1.65,0,0,1-2.48,0,2.21,2.21,0,0,1,0-2.8A1.61,1.61,0,0,1,78.59,54.31Zm0,3.53a1.23,1.23,0,0,0,1-.45,1.82,1.82,0,0,0,0-2.24,1.19,1.19,0,0,0-1-.45,1.21,1.21,0,0,0-1,.45,1.64,1.64,0,0,0-.39,1.12,1.63,1.63,0,0,0,.39,1.12A1.21,1.21,0,0,0,78.59,57.84Z" transform="translate(-0.35)"/>
            </g>
            <g class="cls-1">
              <path class="cls-2" d="M84.58,54.38V55h0a1.29,1.29,0,0,1,1.13-.73,1.13,1.13,0,0,1,.93.41A1.71,1.71,0,0,1,87,55.86v2.3h-.36V56c0-.87-.31-1.31-.93-1.31a1.29,1.29,0,0,0-1.12.81v2.65h-.36V54.38Z" transform="translate(-0.35)"/>
            </g>
            <g class="cls-1">
              <path class="cls-2" d="M92.92,54.63v.43a1.68,1.68,0,0,0-.94-.38.77.77,0,0,0-.52.18.59.59,0,0,0-.21.46.54.54,0,0,0,.13.35,2,2,0,0,0,.71.41,1.8,1.8,0,0,1,.76.51,1.13,1.13,0,0,1,.17.6,1,1,0,0,1-.32.74,1.14,1.14,0,0,1-.8.3,1.78,1.78,0,0,1-1-.34v-.4a2.23,2.23,0,0,0,1.07.35.73.73,0,0,0,.52-.19.62.62,0,0,0,.2-.47.55.55,0,0,0-.13-.36,2.19,2.19,0,0,0-.72-.42,1.85,1.85,0,0,1-.75-.51,1,1,0,0,1-.17-.55.94.94,0,0,1,.32-.73,1.09,1.09,0,0,1,.78-.3A1.68,1.68,0,0,1,92.92,54.63Z" transform="translate(-0.35)"/>
            </g>
            <g class="cls-1">
              <path class="cls-2" d="M99.23,58.16v-.63h0a1.53,1.53,0,0,1-.48.54,1.15,1.15,0,0,1-.64.16,1.18,1.18,0,0,1-.91-.39,1.6,1.6,0,0,1-.36-1.12V54.38h.36v2.33a1.25,1.25,0,0,0,.26.83.87.87,0,0,0,.68.3,1,1,0,0,0,.61-.18,2.05,2.05,0,0,0,.5-.63V54.38h.36v3.78Z" transform="translate(-0.35)"/>
            </g>
            <g class="cls-1">
              <path class="cls-2" d="M103.71,52.42v5.74h-.37V52.42Z" transform="translate(-0.35)"/>
            </g>
            <g class="cls-1">
              <path class="cls-2" d="M108.29,53.13v1.25h1v.33h-1V57a2.11,2.11,0,0,0,.08.71c.06.11.2.17.43.17a1.35,1.35,0,0,0,.63-.19V58a1.48,1.48,0,0,1-.71.19.79.79,0,0,1-.56-.21.74.74,0,0,1-.23-.59V54.71H107v-.33h.92v-.9l.25-.35Z" transform="translate(-0.35)"/>
            </g>
            <g class="cls-1">
              <path class="cls-2" d="M115.92,57.5v.34a1.44,1.44,0,0,1-.69.39.18.18,0,0,1-.18-.09,1.41,1.41,0,0,1-.07-.38,1.62,1.62,0,0,1-1.07.47.83.83,0,0,1-.65-.28.92.92,0,0,1-.27-.67,1.14,1.14,0,0,1,.51-1,2.93,2.93,0,0,1,1.48-.4v-.48a.68.68,0,0,0-.76-.78,1.65,1.65,0,0,0-1,.48v-.41a1.91,1.91,0,0,1,1.1-.4,1.15,1.15,0,0,1,.77.25.9.9,0,0,1,.3.73v2.36c0,.12,0,.19.08.19S115.66,57.73,115.92,57.5Zm-.94-.09V56.23a1.89,1.89,0,0,0-1.17.28.9.9,0,0,0-.46.77.59.59,0,0,0,.2.44.66.66,0,0,0,.48.18A1.36,1.36,0,0,0,115,57.41Z" transform="translate(-0.35)"/>
            </g>
            <g class="cls-1">
              <path class="cls-2" d="M119.89,54.38V55h0a1.28,1.28,0,0,1,1.13-.73,1.13,1.13,0,0,1,.92.41,1.71,1.71,0,0,1,.35,1.14v2.3h-.37V56c0-.87-.31-1.31-.93-1.31a1.28,1.28,0,0,0-1.11.81v2.65h-.37V54.38Z" transform="translate(-0.35)"/>
            </g>
            <g class="cls-1">
              <path class="cls-2" d="M126.83,53.13v1.25h1v.33h-1V57a2.11,2.11,0,0,0,.08.71c.06.11.2.17.43.17a1.35,1.35,0,0,0,.63-.19V58a1.48,1.48,0,0,1-.71.19.82.82,0,0,1-.57-.21.77.77,0,0,1-.22-.59V54.71h-.92v-.33h.92v-.9l.25-.35Z" transform="translate(-0.35)"/>
            </g>
            <g class="cls-1">
              <path class="cls-2" d="M133.16,54.63v.43a1.68,1.68,0,0,0-.94-.38.77.77,0,0,0-.52.18.59.59,0,0,0-.21.46.54.54,0,0,0,.13.35,2,2,0,0,0,.71.41,1.8,1.8,0,0,1,.76.51,1,1,0,0,1,.17.6,1,1,0,0,1-.32.74,1.12,1.12,0,0,1-.8.3,1.8,1.8,0,0,1-1-.34v-.4a2.23,2.23,0,0,0,1.07.35.73.73,0,0,0,.52-.19.62.62,0,0,0,.2-.47.55.55,0,0,0-.13-.36,2.23,2.23,0,0,0-.71-.42,1.82,1.82,0,0,1-.76-.51,1,1,0,0,1,.15-1.28,1.1,1.1,0,0,1,.78-.3A1.68,1.68,0,0,1,133.16,54.63Z" transform="translate(-0.35)"/>
            </g>
          </g>
          <g id="text741-17-9-48-1-4-60-7-6-3-92" class="cls-1">
            <g class="cls-1">
              <path class="cls-2" d="M105.51,16.51h4.25v5.75a10.85,10.85,0,0,1-4.64,1.09,6.64,6.64,0,0,1-5-2,6.75,6.75,0,0,1-1.88-4.85,7,7,0,0,1,2-5.05,6.5,6.5,0,0,1,4.88-2,8.36,8.36,0,0,1,2,.24,16.58,16.58,0,0,1,2.43.91v2A8.46,8.46,0,0,0,105,11.18a4.61,4.61,0,0,0-3.5,1.52,5.22,5.22,0,0,0-1.42,3.72,5.16,5.16,0,0,0,1.42,3.77,4.87,4.87,0,0,0,3.66,1.47,8,8,0,0,0,2.6-.54l.17-.05V18.24h-2.44Z" transform="translate(-0.35)"/>
              <path class="cls-2" d="M117.41,17.82v3.8c0,.3.1.46.29.46a1.91,1.91,0,0,0,.93-.48v1.08a5.34,5.34,0,0,1-.9.53,1.87,1.87,0,0,1-.71.14,1.12,1.12,0,0,1-1.25-.9,3.4,3.4,0,0,1-2.23.88,1.9,1.9,0,0,1-1.45-.62,2.16,2.16,0,0,1-.58-1.55,2.32,2.32,0,0,1,.56-1.51,3.89,3.89,0,0,1,1.61-1l2.11-.78v-.47c0-1.08-.5-1.61-1.5-1.61a3.57,3.57,0,0,0-2.63,1.49V15.3a3.31,3.31,0,0,1,2.76-1.21,3.1,3.1,0,0,1,2.17.75,2.63,2.63,0,0,1,.49.65,2.58,2.58,0,0,1,.27.81A12.27,12.27,0,0,1,117.41,17.82Zm-1.62,3.61V18.78l-1.1.45a3.79,3.79,0,0,0-1.2.72,1.4,1.4,0,0,0,0,1.82,1.12,1.12,0,0,0,.85.34A2,2,0,0,0,115.79,21.43Z" transform="translate(-0.35)"/>
              <path class="cls-2" d="M126.92,16.71v6.48h-1.66v-5a4.1,4.1,0,0,0-.37-2.07,1.42,1.42,0,0,0-1.29-.59,1.83,1.83,0,0,0-.95.26,4,4,0,0,0-1,.89v6.48H120V14.26h1.65v1.18a3.51,3.51,0,0,1,2.46-1.35,2.67,2.67,0,0,1,2.45,1.61,3.66,3.66,0,0,1,2.77-1.63,2.45,2.45,0,0,1,2,.95,4.5,4.5,0,0,1,.78,2.9v5.27h-1.64V17.9a3,3,0,0,0-.43-1.71,1.42,1.42,0,0,0-1.22-.59A2.48,2.48,0,0,0,126.92,16.71Z" transform="translate(-0.35)"/>
              <path class="cls-2" d="M141.22,16.71v6.48h-1.66v-5a4.22,4.22,0,0,0-.37-2.07,1.42,1.42,0,0,0-1.3-.59,1.8,1.8,0,0,0-.94.26,4,4,0,0,0-1,.89v6.48h-1.64V14.26H136v1.18a3.51,3.51,0,0,1,2.47-1.35,2.68,2.68,0,0,1,2.45,1.61,3.64,3.64,0,0,1,2.76-1.63,2.46,2.46,0,0,1,2,.95,4.5,4.5,0,0,1,.78,2.9v5.27h-1.65V17.9a3,3,0,0,0-.42-1.71,1.43,1.43,0,0,0-1.22-.59A2.47,2.47,0,0,0,141.22,16.71Z" transform="translate(-0.35)"/>
              <path class="cls-2" d="M153.92,17.82v3.8c0,.3.1.46.29.46a1.91,1.91,0,0,0,.93-.48v1.08a5.34,5.34,0,0,1-.9.53,1.91,1.91,0,0,1-.71.14,1.11,1.11,0,0,1-1.25-.9,3.42,3.42,0,0,1-2.24.88,1.88,1.88,0,0,1-1.44-.62,2.16,2.16,0,0,1-.58-1.55,2.26,2.26,0,0,1,.56-1.51,3.83,3.83,0,0,1,1.61-1l2.11-.78v-.47c0-1.08-.5-1.61-1.5-1.61a3.57,3.57,0,0,0-2.63,1.49V15.3a3.31,3.31,0,0,1,2.76-1.21,3.1,3.1,0,0,1,2.17.75,2.76,2.76,0,0,1,.76,1.46A12.27,12.27,0,0,1,153.92,17.82Zm-1.62,3.61V18.78l-1.11.45A3.84,3.84,0,0,0,150,20a1.39,1.39,0,0,0,0,1.82,1.15,1.15,0,0,0,.86.34A2,2,0,0,0,152.3,21.43Z" transform="translate(-0.35)"/>
            </g>
            <g class="cls-1">
              <path class="cls-2" d="M74.25,37.39l-1.38-.9A6.24,6.24,0,0,1,71,34.82a3.25,3.25,0,0,1-.55-1.88,3.44,3.44,0,0,1,1-2.6,3.7,3.7,0,0,1,2.69-1,4.83,4.83,0,0,1,2.91.95v2.2a4.06,4.06,0,0,0-2.94-1.41,2.33,2.33,0,0,0-1.46.44,1.37,1.37,0,0,0-.57,1.13,1.79,1.79,0,0,0,.42,1.14,5.25,5.25,0,0,0,1.35,1.12l1.38.87a4.4,4.4,0,0,1,2.32,3.78A3.5,3.5,0,0,1,74,43.23,5.33,5.33,0,0,1,70.54,42V39.53a4.2,4.2,0,0,0,3.39,2A2,2,0,0,0,75.35,41a1.62,1.62,0,0,0,.56-1.27A3,3,0,0,0,74.25,37.39Z" transform="translate(-0.35)"/>
              <path class="cls-2" d="M85.63,41v1.75a6.56,6.56,0,0,1-2.43.5A4.08,4.08,0,0,1,80.08,42a4.67,4.67,0,0,1-1.16-3.33,5,5,0,0,1,1.13-3.39A3.78,3.78,0,0,1,83,34a4.63,4.63,0,0,1,1.16.13,6.61,6.61,0,0,1,1.26.49v1.88a4.18,4.18,0,0,0-2.32-.85,2.3,2.3,0,0,0-1.83.84,3.16,3.16,0,0,0-.71,2.14,3,3,0,0,0,.77,2.17,2.76,2.76,0,0,0,2.09.81A5.1,5.1,0,0,0,85.63,41Z" transform="translate(-0.35)"/>
              <path class="cls-2" d="M88.35,30.38a.9.9,0,0,1,.7.31,1,1,0,0,1,.29.73,1,1,0,0,1-.29.74.9.9,0,0,1-.7.31.86.86,0,0,1-.66-.31,1,1,0,0,1-.29-.74,1,1,0,0,1,.29-.72A.87.87,0,0,1,88.35,30.38Zm-.81,3.76h1.65v8.93H87.54Z" transform="translate(-0.35)"/>
              <path class="cls-2" d="M98.67,38.76H92.81a3,3,0,0,0,.8,2,2.57,2.57,0,0,0,1.91.76,4.76,4.76,0,0,0,3-1.09V42.2A5.22,5.22,0,0,1,97,43a5.81,5.81,0,0,1-1.76.24A3.76,3.76,0,0,1,93,42.6,4.37,4.37,0,0,1,91.67,41a5.35,5.35,0,0,1-.51-2.39,5,5,0,0,1,1.08-3.32A3.49,3.49,0,0,1,95,34a3.2,3.2,0,0,1,2.64,1.24,5.2,5.2,0,0,1,1,3.33ZM92.85,37.7H97a2.56,2.56,0,0,0-.59-1.63A1.82,1.82,0,0,0,95,35.5a2,2,0,0,0-1.46.57A2.94,2.94,0,0,0,92.85,37.7Z" transform="translate(-0.35)"/>
              <path class="cls-2" d="M102.1,34.14v1.14A3.22,3.22,0,0,1,104.61,34a2.61,2.61,0,0,1,1.45.43,2.86,2.86,0,0,1,1,1.18,6.13,6.13,0,0,1,.34,2.39v5.1h-1.64V38a3.65,3.65,0,0,0-.39-1.95,1.46,1.46,0,0,0-1.31-.59,2.35,2.35,0,0,0-2,1.25v6.38h-1.68V34.14Z" transform="translate(-0.35)"/>
              <path class="cls-2" d="M116,41v1.75a6.52,6.52,0,0,1-2.43.5A4,4,0,0,1,110.43,42a4.63,4.63,0,0,1-1.17-3.33,5,5,0,0,1,1.13-3.39,3.78,3.78,0,0,1,3-1.29,4.57,4.57,0,0,1,1.16.13,6.61,6.61,0,0,1,1.26.49v1.88a4.18,4.18,0,0,0-2.32-.85,2.3,2.3,0,0,0-1.83.84,3.21,3.21,0,0,0-.71,2.14,3,3,0,0,0,.77,2.17,2.76,2.76,0,0,0,2.09.81A5.1,5.1,0,0,0,116,41Z" transform="translate(-0.35)"/>
              <path class="cls-2" d="M124.94,38.76h-5.85a3,3,0,0,0,.8,2,2.55,2.55,0,0,0,1.9.76,4.78,4.78,0,0,0,3-1.09V42.2a5.27,5.27,0,0,1-1.51.77,5.74,5.74,0,0,1-1.75.24,3.8,3.8,0,0,1-2.23-.61A4.44,4.44,0,0,1,118,41a5.35,5.35,0,0,1-.51-2.39,5,5,0,0,1,1.08-3.32A3.47,3.47,0,0,1,121.31,34,3.2,3.2,0,0,1,124,35.21a5.2,5.2,0,0,1,1,3.33Zm-5.82-1.06h4.19a2.56,2.56,0,0,0-.58-1.63,1.83,1.83,0,0,0-1.42-.57,2,2,0,0,0-1.45.57A3,3,0,0,0,119.12,37.7Z" transform="translate(-0.35)"/>
              <path class="cls-2" d="M132.11,29.51h1.81V41.3h5.69v1.77h-7.5Z" transform="translate(-0.35)"/>
              <path class="cls-2" d="M139.8,35.56l3.1-3.26v1.84h2.63v1.59H142.9V40.1c0,1,.39,1.53,1.19,1.53A3.51,3.51,0,0,0,146,41v1.65a3.88,3.88,0,0,1-2.07.58,2.65,2.65,0,0,1-1.89-.71,2.28,2.28,0,0,1-.39-.48,2.46,2.46,0,0,1-.25-.7,8.28,8.28,0,0,1-.11-1.65v-4H139.8Z" transform="translate(-0.35)"/>
              <path class="cls-2" d="M152.71,29.51h1.65V43.07h-3.52a3.76,3.76,0,0,1-3-1.25,4.94,4.94,0,0,1-1.1-3.36A4.65,4.65,0,0,1,148,35.22,3.79,3.79,0,0,1,150.89,34a5,5,0,0,1,1.82.38Zm0,12.05V35.9a3.26,3.26,0,0,0-1.56-.42,2.44,2.44,0,0,0-2,.86,3.5,3.5,0,0,0-.73,2.33,3.22,3.22,0,0,0,.63,2.13,1.92,1.92,0,0,0,.81.6,4.81,4.81,0,0,0,1.53.16Z" transform="translate(-0.35)"/>
            </g>
          </g>
          <path id="path713-2-1-9-5-8-6-83-0-0-2-5-0" class="cls-3" d="M80.9,5.89c-8.73,3.84-16.66,9-24.62,14.13s-16,10.34-24.86,14.25C23,38,11.4,40.48.41,40.75V48.5C48.29,48.5,67.45.08,115.34.08,99.54-.37,92.29,1.09,80.9,5.89Z" transform="translate(-0.35)"/>
        </g>
      </g>
    </g>
  </g>
</svg>
